<svg id="Capa_1" enable-background="new 0 0 512 512" height="512" viewBox="0 0 512 512" width="512" xmlns="http://www.w3.org/2000/svg"><g><path d="m302.323 143.987v103.088c-11.33-4.19-26.02-7.93-42.39-7.93-7.33 0-15 .75-22.85 2.55v-104.588c27.021-8.98 53.27.99 65.24 6.88z"/><path d="m397.562 137.107v104.588c-25.37-5.81-48.839-.69-65.239 5.38v-103.088c11.979-5.89 38.219-15.86 65.239-6.88z"/><path d="m317.323 0c-107.339 0-194.677 87.328-194.677 194.676 0 37.399 10.61 72.369 28.97 102.068l-23.01 23.01-9.39-9.39c-5.86-5.86-15.35-5.86-21.21 0s-5.86 15.35 0 21.209l9.39 9.39-94.199 94.207c-17.61 17.59-17.58 46.079-.01 63.629 17.57 17.59 46.039 17.609 63.639.01l94.209-94.208 9.39 9.39c5.86 5.86 15.34 5.87 21.21 0 5.86-5.86 5.86-15.35 0-21.21l-9.39-9.39 23.01-23.009c29.7 18.359 64.669 28.969 102.069 28.969 107.347 0 194.676-87.338 194.676-194.675 0-107.348-87.329-194.676-194.677-194.676zm110.238 262.804c0 11.09-11.63 18.33-21.57 13.49-39.339-19.17-80.009 6.87-80.419 7.13-5.36 3.55-12.15 3.13-16.94-.27-4.26-2.62-42.709-25.019-79.979-6.86-9.95 4.84-21.57-2.42-21.57-13.49v-135.737c0-5.74 3.27-10.97 8.43-13.49 42.899-20.89 84.529-4.55 101.809 4.34 17.29-8.89 58.919-25.239 101.808-4.34 5.16 2.52 8.43 7.75 8.43 13.49v135.737z"/></g></svg>