<svg id="Layer_1" enable-background="new 0 0 512 512" height="512" viewBox="0 0 512 512" width="512" xmlns="http://www.w3.org/2000/svg"><g><path d="m27.344 105.5h406.901c6.988 0 11.82-6.984 9.351-13.521-9.453-24.562-9.454-53.896 0-78.458 2.47-6.537-2.363-13.521-9.351-13.521h-406.901c-15.102 0-27.344 12.242-27.344 27.344v50.812c0 15.102 12.242 27.344 27.344 27.344z"/><path d="m237.125 135.5v60.895c-.145 12.706-12.908 18.146-21.343 13.917l-27.532-12.848-27.532 12.848c-5.747 2.681-12.693 1.504-17.262-3.3-2.708-2.848-4.082-6.714-4.082-10.644v-60.868h-44.28c-15.102 0-27.344 12.242-27.344 27.344v50.812c0 15.102 12.242 27.344 27.344 27.344h406.901c6.988 0 11.82-6.984 9.351-13.521-9.453-24.562-9.454-53.896 0-78.458 2.47-6.537-2.363-13.521-9.351-13.521z"/><path d="m194.593 167.317 12.532 5.848v-37.665h-37.75v37.666l12.532-5.848c4.02-1.877 8.666-1.877 12.686-.001z"/><path d="m317.406 302.817c4.022-1.876 8.665-1.876 12.688 0l12.531 5.848v-37.665h-37.75v37.666z"/><path d="m501.995 406.5h-406.901c-15.102 0-27.344 12.242-27.344 27.344v50.812c0 15.102 12.242 27.344 27.344 27.344h406.901c6.988 0 11.82-6.984 9.351-13.521-9.453-24.562-9.454-53.896 0-78.458 2.47-6.537-2.363-13.521-9.351-13.521z"/><path d="m434.245 376.5c6.988 0 11.82-6.984 9.351-13.521-9.453-24.562-9.454-53.896 0-78.458 2.47-6.537-2.363-13.521-9.351-13.521h-61.62v60.895c-.146 12.706-12.908 18.146-21.344 13.917l-27.531-12.848-27.531 12.848c-9.874 4.713-21.592-2.824-21.344-13.942v-60.87h-247.531c-15.102 0-27.344 12.242-27.344 27.344v50.812c0 15.102 12.242 27.344 27.344 27.344z"/></g></svg>