<?xml version="1.0" encoding="iso-8859-1"?>
<!-- Generator: Adobe Illustrator 19.0.0, SVG Export Plug-In . SVG Version: 6.00 Build 0)  -->
<svg version="1.1" id="Layer_1" xmlns="http://www.w3.org/2000/svg" xmlns:xlink="http://www.w3.org/1999/xlink" x="0px" y="0px"
	 viewBox="0 0 512.005 512.005" style="enable-background:new 0 0 512.005 512.005;" xml:space="preserve">
<g>
	<g>
		<path d="M405.336,0H106.669c-5.888,0-10.667,4.779-10.667,10.667v490.667c0,4.309,2.603,8.213,6.592,9.856
			c3.989,1.664,8.576,0.725,11.627-2.304l141.781-141.803l141.781,141.781c2.048,2.048,4.779,3.136,7.552,3.136
			c1.365,0,2.752-0.256,4.075-0.811c3.989-1.643,6.592-5.547,6.592-9.856V10.667C416.002,4.779,411.224,0,405.336,0z
			 M363.714,156.992l-56.427,41.003l21.547,66.325c1.429,4.395-0.128,9.216-3.883,11.925c-1.877,1.365-4.075,2.048-6.272,2.048
			s-4.395-0.683-6.272-2.048l-56.405-40.981l-56.427,40.981c-3.755,2.731-8.789,2.731-12.544,0
			c-3.733-2.709-5.312-7.531-3.883-11.925l21.547-66.325l-56.405-41.003c-3.755-2.709-5.312-7.531-3.883-11.904
			c1.429-4.395,5.525-7.381,10.155-7.381h69.76l21.547-66.325c2.859-8.789,17.429-8.789,20.288,0l21.547,66.325h69.76
			c4.629,0,8.725,2.987,10.155,7.381C369.026,149.461,367.469,154.283,363.714,156.992z"/>
	</g>
</g>
<g>
</g>
<g>
</g>
<g>
</g>
<g>
</g>
<g>
</g>
<g>
</g>
<g>
</g>
<g>
</g>
<g>
</g>
<g>
</g>
<g>
</g>
<g>
</g>
<g>
</g>
<g>
</g>
<g>
</g>
</svg>
